# xmcd
#
# Track frame offsets: 
#        150
#        28846
#        49190
#        63221
#        91582
#        119543
#        131903
#        151993
#        163971
#        187512
#
# Disc length: 2847 seconds
#
# Revision: 0
# Processed by: cddbd v1.5.2PL0 Copyright (c) Steve Scherf et al.
# Submitted via: ExactAudioCopy v0.99pb4
#
DISCID=7e0b1d0a
DTITLE=Cheryl Renee - I Believe You Know The Blues
DYEAR=2001
DGENRE=Blues
TTITLE0=In My Girlish Days
TTITLE1=Roll With Me Henry
TTITLE2=That's a Pretty Good Love
TTITLE3=Never Make a Move Too Soon
TTITLE4=Come On in This House - Mercy Mercy
TTITLE5=I Don't Care No More
TTITLE6=I'm Gettin' long Alright
TTITLE7=Down Girl, Down
TTITLE8=Tramp
TTITLE9=The Blues Is a Living Thing
EXTD=
EXTT0=
EXTT1=
EXTT2=
EXTT3=
EXTT4=
EXTT5=
EXTT6=
EXTT7=
EXTT8=
EXTT9=
PLAYORDER=
